<?xml version="1.0" encoding="UTF-8"?>
<svg xmlns="http://www.w3.org/2000/svg" xmlns:xlink="http://www.w3.org/1999/xlink" width="64px" height="64px" viewBox="0 0 64 64" version="1.1">
<g id="surface1">
<path style=" stroke:none;fill-rule:nonzero;fill:rgb(0%,24.313726%,66.666669%);fill-opacity:1;" d="M 10.667969 36.667969 L 10.667969 32.667969 L 30.667969 32.667969 L 30.667969 36.667969 Z M 10.667969 25.667969 L 10.667969 21.667969 L 42 21.667969 L 42 25.667969 Z M 10.667969 14.667969 L 10.667969 10.667969 L 42 10.667969 L 42 14.667969 Z M 34.667969 53.332031 L 34.667969 45.132812 L 49.398438 30.464844 C 49.800781 30.066406 50.246094 29.777344 50.734375 29.601562 C 51.222656 29.421875 51.710938 29.332031 52.199219 29.332031 C 52.734375 29.332031 53.246094 29.433594 53.734375 29.632812 C 54.222656 29.832031 54.667969 30.132812 55.066406 30.535156 L 57.535156 33 C 57.933594 33.398438 58.222656 33.84375 58.398438 34.332031 C 58.578125 34.820312 58.667969 35.3125 58.667969 35.800781 C 58.667969 36.289062 58.566406 36.789062 58.367188 37.300781 C 58.167969 37.8125 57.867188 38.265625 57.472656 38.667969 L 42.867188 53.332031 Z M 54.667969 35.800781 L 52.199219 33.332031 Z M 38.667969 49.332031 L 41.199219 49.332031 L 49.265625 41.199219 L 48.066406 39.933594 L 46.800781 38.734375 L 38.667969 46.800781 Z M 48.066406 39.933594 L 46.800781 38.734375 L 49.265625 41.199219 Z M 48.066406 39.933594 "/>
</g>
</svg>
