<?xml version="1.0" encoding="UTF-8"?>
<svg xmlns="http://www.w3.org/2000/svg" xmlns:xlink="http://www.w3.org/1999/xlink" width="128px" height="128px" viewBox="0 0 128 128" version="1.1">
<g id="surface1">
<path style=" stroke:none;fill-rule:nonzero;fill:rgb(0%,24.313726%,66.666669%);fill-opacity:1;" d="M 21.332031 73.332031 L 21.332031 65.332031 L 61.332031 65.332031 L 61.332031 73.332031 Z M 21.332031 51.332031 L 21.332031 43.332031 L 84 43.332031 L 84 51.332031 Z M 21.332031 29.332031 L 21.332031 21.332031 L 84 21.332031 L 84 29.332031 Z M 69.332031 106.667969 L 69.332031 90.265625 L 98.800781 60.933594 C 99.601562 60.132812 100.488281 59.554688 101.464844 59.199219 C 102.445312 58.84375 103.421875 58.667969 104.398438 58.667969 C 105.464844 58.667969 106.488281 58.867188 107.464844 59.265625 C 108.445312 59.667969 109.332031 60.265625 110.132812 61.066406 L 115.066406 66 C 115.867188 66.800781 116.445312 67.6875 116.800781 68.667969 C 117.15625 69.644531 117.332031 70.621094 117.332031 71.601562 C 117.332031 72.578125 117.132812 73.578125 116.734375 74.601562 C 116.332031 75.621094 115.738281 76.535156 114.945312 77.332031 L 85.734375 106.667969 Z M 109.332031 71.601562 L 104.398438 66.667969 Z M 77.332031 98.667969 L 82.398438 98.667969 L 98.535156 82.398438 L 96.132812 79.867188 L 93.601562 77.464844 L 77.332031 93.601562 Z M 96.132812 79.867188 L 93.601562 77.464844 L 98.535156 82.398438 Z M 96.132812 79.867188 "/>
</g>
</svg>
